<?xml version="1.0" encoding="UTF-8"?>
<svg id="Layer_2" data-name="Layer 2" xmlns="http://www.w3.org/2000/svg" viewBox="0 0 512 390.27">
  <defs>
    <style>
      .cls-1 {
        fill: #d5d5d5;
        stroke-width: 0px;
      }
    </style>
  </defs>
  <g id="Capa_1" data-name="Capa 1">
    <path class="cls-1" d="M433.46,32.35C400.82,17.37,365.83,6.34,329.24.03c-.66-.13-1.32.19-1.69.79-4.5,8-9.49,18.45-12.97,26.65-39.36-5.89-78.51-5.89-117.06,0-3.48-8.38-8.66-18.65-13.16-26.65-.36-.6-1.02-.9-1.69-.79-36.57,6.29-71.56,17.32-104.22,32.32-.28.11-.53.32-.68.58C11.39,132.09-6.8,228.82,2.11,324.36c.04.47.3.92.66,1.19,43.8,32.17,86.21,51.69,127.86,64.62.66.21,1.37-.04,1.79-.6,9.86-13.44,18.63-27.63,26.16-42.54.45-.87.02-1.92-.9-2.26-13.93-5.29-27.18-11.73-39.94-19.03-1-.6-1.09-2.03-.17-2.73,2.69-2.01,5.38-4.1,7.94-6.21.47-.38,1.11-.47,1.66-.21,83.8,38.25,174.52,38.25,257.32,0,.55-.26,1.19-.19,1.69.21,2.56,2.11,5.25,4.22,7.96,6.23.94.68.87,2.13-.15,2.73-12.76,7.45-26.01,13.76-39.96,19.01-.92.34-1.3,1.41-.87,2.28,7.68,14.89,16.47,29.08,26.14,42.52.41.58,1.13.81,1.79.62,41.84-12.95,84.27-32.47,128.05-64.62.38-.28.62-.7.66-1.17,10.67-110.45-17.88-206.39-75.7-291.43-.11-.3-.36-.51-.64-.62ZM171.11,266.2c-25.24,0-46.02-23.17-46.02-51.61s20.37-51.61,46.02-51.61,46.42,23.36,46.02,51.61c0,28.46-20.4,51.61-46.02,51.61ZM341.25,266.2c-25.22,0-46.02-23.17-46.02-51.61s20.37-51.61,46.02-51.61,46.42,23.36,46.02,51.61c0,28.46-20.18,51.61-46.02,51.61Z"/>
  </g>
</svg>