<?xml version="1.0" encoding="UTF-8"?>
<svg id="Layer_2" data-name="Layer 2" xmlns="http://www.w3.org/2000/svg" viewBox="0 0 512 499.35">
  <defs>
    <style>
      .cls-1 {
        fill-rule: evenodd;
      }

      .cls-1, .cls-2 {
        fill: #d5d5d5;
        stroke-width: 0px;
      }
    </style>
  </defs>
  <g id="Capa_1" data-name="Capa 1">
    <g>
      <path class="cls-1" d="M255.99,0C114.62,0,0,114.6,0,255.99c0,113.1,73.34,209.06,175.05,242.91,12.8,2.37,17.49-5.55,17.49-12.31,0-6.1-.23-26.26-.34-47.66-71.21,15.49-86.25-30.21-86.25-30.21-11.65-29.59-28.41-37.46-28.41-37.46-23.23-15.89,1.75-15.55,1.75-15.55,25.71,1.81,39.23,26.39,39.23,26.39,22.83,39.12,59.88,27.82,74.49,21.27,2.3-16.55,8.94-27.84,16.26-34.24-56.85-6.46-116.62-28.41-116.62-126.5,0-27.95,10-50.79,26.39-68.71-2.67-6.46-11.43-32.49,2.47-67.75,0,0,21.5-6.87,70.42,26.24,20.42-5.67,42.3-8.51,64.06-8.62,21.76.11,43.67,2.94,64.13,8.62,48.85-33.13,70.33-26.24,70.33-26.24,13.93,35.26,5.16,61.29,2.52,67.75,16.4,17.92,26.35,40.77,26.35,68.71,0,98.32-59.88,119.97-116.88,126.31,9.17,7.94,17.36,23.53,17.36,47.4,0,34.26-.3,61.82-.3,70.25,0,6.81,4.61,14.8,17.58,12.29,101.67-33.9,174.93-129.81,174.93-242.87C511.98,114.62,397.36,0,255.99,0Z"/>
      <path class="cls-2" d="M96.96,367.56c-.55,1.28-2.56,1.66-4.39.79-1.86-.83-2.9-2.58-2.3-3.84.55-1.3,2.56-1.66,4.42-.79,1.86.81,2.92,2.56,2.28,3.84h0Z"/>
      <path class="cls-2" d="M107.32,379.12c-1.22,1.13-3.61.6-5.23-1.17-1.69-1.79-1.98-4.18-.75-5.31,1.26-1.13,3.56-.6,5.25,1.19,1.69,1.77,2.01,4.14.73,5.29h0Z"/>
      <path class="cls-2" d="M117.41,393.86c-1.58,1.09-4.14.06-5.72-2.2-1.58-2.28-1.58-5.01.04-6.1,1.58-1.09,4.12-.11,5.72,2.15,1.56,2.3,1.56,5.03-.04,6.14h0Z"/>
      <path class="cls-2" d="M131.24,408.11c-1.41,1.56-4.39,1.13-6.57-.98-2.24-2.07-2.86-4.99-1.45-6.55,1.43-1.56,4.44-1.11,6.63.98,2.22,2.07,2.88,5.01,1.39,6.55h0Z"/>
      <path class="cls-2" d="M150.33,416.37c-.62,2.01-3.5,2.92-6.4,2.07-2.9-.87-4.8-3.22-4.2-5.25.6-2.03,3.5-2.97,6.42-2.05,2.88.85,4.78,3.2,4.18,5.23h0Z"/>
      <path class="cls-2" d="M171.28,417.9c.06,2.11-2.39,3.86-5.44,3.9-3.05.06-5.55-1.64-5.57-3.71,0-2.13,2.41-3.86,5.46-3.93s5.55,1.64,5.55,3.73h0Z"/>
      <path class="cls-2" d="M190.78,414.6c.36,2.05-1.75,4.18-4.78,4.74-2.97.55-5.72-.73-6.1-2.77-.36-2.11,1.79-4.22,4.76-4.78,3.01-.53,5.74.7,6.12,2.82h0Z"/>
    </g>
  </g>
</svg>