<?xml version="1.0" encoding="UTF-8"?>
<svg id="Layer_2" data-name="Layer 2" xmlns="http://www.w3.org/2000/svg" viewBox="0 0 512 511.98">
  <defs>
    <style>
      .cls-1 {
        fill: #d5d5d5;
        stroke-width: 0px;
      }
    </style>
  </defs>
  <g id="Capa_1" data-name="Capa 1">
    <path id="Path_2520" data-name="Path 2520" class="cls-1" d="M436.26,436.26h-75.87v-118.81c0-28.33-.5-64.79-39.46-64.79s-45.57,30.86-45.57,62.75v120.85h-75.84v-244.33h72.84v33.38h1.01c14.86-25.38,42.46-40.55,71.86-39.46,76.9,0,91.06,50.59,91.06,116.36l-.03,134.05ZM113.92,158.53c-24.32,0-44.03-19.7-44.03-44.03s19.7-44.03,44.03-44.03,44.03,19.7,44.03,44.03c0,24.32-19.7,44.03-44.03,44.03h0M151.84,436.26h-75.94v-244.33h75.94v244.33ZM474.08.03H37.77C17.16-.2.25,16.33,0,36.94v438.1c.25,20.64,17.16,37.16,37.77,36.94h436.31c20.66.25,37.64-16.27,37.92-36.94V36.92C511.7,16.25,494.72-.27,474.08,0"/>
  </g>
</svg>