<?xml version="1.0" encoding="UTF-8"?>
<svg id="Layer_2" data-name="Layer 2" xmlns="http://www.w3.org/2000/svg" viewBox="0 0 512 469.33">
  <defs>
    <style>
      .cls-1 {
        fill: #d5d5d5;
        stroke-width: 0px;
      }
    </style>
  </defs>
  <g id="Capa_1" data-name="Capa 1">
    <g>
      <path class="cls-1" d="M511.02,96.9l-179.58,179.58c-41.69,41.59-109.18,41.59-150.87,0L.98,96.9c-.3,3.37-.98,6.42-.98,9.77v256c.07,58.88,47.79,106.6,106.67,106.67h298.67c58.88-.07,106.6-47.79,106.67-106.67V106.67c0-3.35-.68-6.4-.98-9.77Z"/>
      <path class="cls-1" d="M301.27,246.31L496.13,51.43C476.93,19.6,442.51.1,405.33,0H106.67C69.49.1,35.07,19.6,15.87,51.43l194.86,194.88c25.03,24.93,65.51,24.93,90.54,0Z"/>
    </g>
  </g>
</svg>