<?xml version="1.0" encoding="UTF-8"?>
<svg id="Layer_2" data-name="Layer 2" xmlns="http://www.w3.org/2000/svg" viewBox="0 0 512 514.47">
  <defs>
    <style>
      .cls-1 {
        fill: #d5d5d5;
        fill-rule: evenodd;
        stroke-width: 0px;
      }
    </style>
  </defs>
  <g id="Capa_1" data-name="Capa 1">
    <g id="WA_Logo" data-name="WA Logo">
      <path class="cls-1" d="M437.42,74.77C389.28,26.58,325.27.02,257.08,0,116.57,0,2.21,114.34,2.14,254.92c-.02,44.93,11.73,88.79,34.04,127.46L0,514.47l135.13-35.46c37.23,20.32,79.16,31.02,121.82,31.04h.11c140.49,0,254.87-114.36,254.94-254.94.04-68.1-26.45-132.17-74.58-180.34ZM257.08,466.98h-.09c-38.03,0-75.3-10.22-107.84-29.54l-7.74-4.59-80.19,21.03,21.41-78.2-5.04-8.02c-21.22-33.74-32.41-72.73-32.39-112.75.04-116.83,95.11-211.87,211.98-211.87,56.59,0,109.8,22.08,149.8,62.12,40,40.06,62.01,93.29,61.99,149.9-.06,116.87-95.11,211.92-211.9,211.92ZM373.31,308.29c-6.37-3.19-37.68-18.61-43.54-20.73-5.83-2.12-10.07-3.19-14.34,3.17s-16.44,20.73-20.17,24.99c-3.71,4.24-7.44,4.78-13.8,1.59-6.37-3.19-26.9-9.9-51.23-31.62-18.93-16.89-31.73-37.75-35.43-44.14s-.39-9.82,2.79-12.99c2.87-2.85,6.37-7.44,9.56-11.17,3.22-3.69,4.27-6.35,6.41-10.61,2.12-4.24,1.07-7.97-.54-11.17-1.61-3.17-14.34-34.53-19.64-47.29-5.17-12.43-10.42-10.74-14.34-10.93-3.71-.19-7.95-.21-12.22-.21s-11.15,1.59-16.98,7.97c-5.83,6.39-22.29,21.8-22.29,53.14s22.83,61.65,26,65.89,44.91,68.6,108.81,96.18c15.2,6.56,27.07,10.48,36.31,13.42,15.26,4.84,29.15,4.16,40.13,2.53,12.24-1.82,37.68-15.41,43-30.29,5.32-14.88,5.32-27.65,3.71-30.29-1.59-2.68-5.83-4.27-12.2-7.46Z"/>
    </g>
  </g>
</svg>