<?xml version="1.0" encoding="UTF-8"?>
<svg id="Layer_2" data-name="Layer 2" xmlns="http://www.w3.org/2000/svg" viewBox="0 0 306.69 399.23">
  <defs>
    <style>
      .cls-1 {
        fill: #e5e5e5;
        stroke-width: 0px;
      }
    </style>
  </defs>
  <g id="Layer_1-2" data-name="Layer 1">
    <path class="cls-1" d="M147.14,0c4.94,0,9.88,0,14.81,0,.75.18,1.49.46,2.25.53,28.51,2.46,53.15,13.63,73.58,33.57,21.37,20.84,33.62,46.28,35.73,76.14.91,12.81.51,25.71.68,38.57.05,4.14,0,8.27,0,12.39,3.15.53,6.02.75,8.74,1.52,15.16,4.27,23.7,16.08,23.72,32.94.05,56.53.03,113.06-.03,169.59,0,3.22-.22,6.54-1.03,9.64-4.04,15.4-15.99,24.32-32.45,24.33-79.79.03-159.58.03-239.37,0-19.94,0-33.55-12.99-33.63-33-.22-57.18-.18-114.36-.02-171.54.05-16.34,8.94-27.86,23.94-31.95,3.3-.9,6.81-1.07,10.48-1.61,0-12.79.1-25.38-.02-37.97-.23-24.67,5.77-47.6,19.36-68.27C70.36,29.82,93.02,12.82,121.96,4.74,130.16,2.45,138.73,1.54,147.14,0ZM86.78,161.27h134.79c.09-.87.2-1.49.2-2.12,0-12.98.11-25.97-.03-38.95-.1-8.75-1.64-17.26-4.93-25.44-10.33-25.75-37.07-44.27-68.1-41.96-27.36,2.04-52.45,22.54-59.31,49.72-4.88,19.31-1.16,39-2.63,58.76ZM139.63,313.33h-.11c0,6.1-.12,12.2.03,18.3.22,9.41,6.72,16.2,15.04,15.94,9.2-.29,14.43-6.08,14.46-16.15.03-11.16.16-22.33-.12-33.48-.12-4.96,1.32-8.47,5.3-11.68,10.28-8.31,12.81-23,6.65-35.37-5.75-11.54-20.05-18.45-32.31-15.59-11.94,2.79-19.85,10.15-22.96,21.88-3.15,11.88.58,22.06,9.96,29.93,3,2.51,4.17,5.35,4.1,9.1-.12,5.71-.03,11.42-.03,17.13Z"/>
  </g>
</svg>