<?xml version="1.0" encoding="UTF-8"?>
<svg id="Layer_2" data-name="Layer 2" xmlns="http://www.w3.org/2000/svg" viewBox="0 0 805.32 128.86">
  <defs>
    <style>
      .cls-1 {
        fill: #e5e5e5;
        stroke-width: 0px;
      }
    </style>
  </defs>
  <g id="Layer_1-2" data-name="Layer 1">
    <g>
      <g>
        <polygon class="cls-1" points="367.23 29.97 367.23 40.55 347.14 40.55 347.14 97.69 334.87 97.69 334.87 40.55 314.9 40.55 314.9 29.97 367.23 29.97"/>
        <path class="cls-1" d="M391.05,98.89c-4.49,0-8.14-1.06-10.95-3.19-2.81-2.12-4.83-5.09-6.07-8.9-1.24-3.81-1.86-8.2-1.86-13.17s.64-9.5,1.92-13.35c1.28-3.85,3.31-6.84,6.07-8.96,2.77-2.12,6.39-3.19,10.89-3.19,2.89,0,5.31.4,7.28,1.2,1.96.8,3.57,1.76,4.81,2.89,1.24,1.12,2.18,2.23,2.83,3.31.64,1.08,1.08,1.95,1.32,2.59h.24v-9.86h12.63v49.44h-10.59l-2.04-8.06h-.24c-.16.56-.6,1.34-1.32,2.35-.72,1-1.7,2.04-2.95,3.13-1.24,1.08-2.85,1.98-4.81,2.71-1.97.72-4.35,1.08-7.16,1.08ZM396.1,88.55c2.97,0,5.29-.64,6.98-1.92,1.68-1.28,2.85-3.07,3.49-5.35.64-2.29.96-4.79.96-7.52,0-2.97-.34-5.55-1.02-7.76-.68-2.2-1.85-3.93-3.49-5.17-1.64-1.24-3.95-1.86-6.92-1.86-3.13,0-5.55.68-7.28,2.04-1.73,1.36-2.93,3.15-3.61,5.35-.68,2.21-1.02,4.67-1.02,7.4s.34,5.21,1.02,7.46c.68,2.25,1.88,4.03,3.61,5.35,1.72,1.32,4.15,1.98,7.28,1.98Z"/>
        <path class="cls-1" d="M458.77,98.89c-2.97,0-5.49-.46-7.58-1.38-2.09-.92-3.79-2.02-5.11-3.31-1.32-1.28-2.29-2.45-2.89-3.49-.6-1.04-.94-1.64-1.02-1.8h-.24l-2.04,8.78h-10.59V29.97h12.63v29.11h.24c.08-.24.4-.92.96-2.04.56-1.12,1.46-2.36,2.71-3.73,1.24-1.36,2.93-2.54,5.05-3.55,2.12-1,4.75-1.5,7.88-1.5,4.89,0,8.82,1.06,11.79,3.19,2.97,2.13,5.15,5.09,6.56,8.9,1.4,3.81,2.11,8.32,2.11,13.53s-.68,9.34-2.04,13.11c-1.36,3.77-3.55,6.7-6.56,8.78s-6.96,3.13-11.85,3.13ZM454.8,88.55c3.29,0,5.83-.7,7.64-2.11,1.8-1.4,3.05-3.25,3.73-5.53.68-2.29,1.02-4.67,1.02-7.16s-.36-4.85-1.08-7.1c-.72-2.24-2.01-4.05-3.85-5.41-1.85-1.36-4.45-2.04-7.82-2.04-2.97,0-5.37.62-7.22,1.86-1.85,1.24-3.17,2.97-3.97,5.17-.8,2.21-1.2,4.71-1.2,7.52s.42,5.43,1.26,7.64c.84,2.21,2.2,3.95,4.09,5.23,1.88,1.28,4.35,1.92,7.4,1.92Z"/>
        <path class="cls-1" d="M490.53,97.69V29.97h21.41l15.88,62.43h.24l15.76-62.43h21.29v67.72h-12.75l.84-62.19h-.12l-16.24,62.19h-18.04l-16-62.19h-.24l.72,62.19h-12.75Z"/>
        <path class="cls-1" d="M593.25,98.89c-4.49,0-8.14-1.06-10.95-3.19-2.81-2.12-4.83-5.09-6.07-8.9-1.24-3.81-1.86-8.2-1.86-13.17s.64-9.5,1.92-13.35c1.28-3.85,3.31-6.84,6.07-8.96,2.77-2.12,6.39-3.19,10.89-3.19,2.89,0,5.31.4,7.28,1.2,1.96.8,3.57,1.76,4.81,2.89,1.24,1.12,2.18,2.23,2.83,3.31.64,1.08,1.08,1.95,1.32,2.59h.24v-9.86h12.63v49.44h-10.59l-2.04-8.06h-.24c-.16.56-.6,1.34-1.32,2.35-.72,1-1.7,2.04-2.95,3.13-1.24,1.08-2.85,1.98-4.81,2.71-1.97.72-4.35,1.08-7.16,1.08ZM598.3,88.55c2.97,0,5.29-.64,6.98-1.92,1.68-1.28,2.85-3.07,3.49-5.35.64-2.29.96-4.79.96-7.52,0-2.97-.34-5.55-1.02-7.76-.68-2.2-1.85-3.93-3.49-5.17-1.64-1.24-3.95-1.86-6.92-1.86-3.13,0-5.55.68-7.28,2.04-1.73,1.36-2.93,3.15-3.61,5.35-.68,2.21-1.02,4.67-1.02,7.4s.34,5.21,1.02,7.46c.68,2.25,1.88,4.03,3.61,5.35,1.72,1.32,4.15,1.98,7.28,1.98Z"/>
        <path class="cls-1" d="M651.95,98.89c-1.68,0-3.53-.22-5.53-.66-2.01-.44-4.01-1.12-6.01-2.04-2.01-.92-3.83-2.11-5.47-3.55-1.64-1.44-2.95-3.13-3.91-5.05s-1.44-4.17-1.44-6.74h11.31c0,.08.06.6.18,1.56s.5,2.03,1.14,3.19c.64,1.16,1.68,2.19,3.13,3.07,1.44.88,3.53,1.32,6.26,1.32,2.17,0,3.93-.28,5.29-.84,1.36-.56,2.39-1.26,3.07-2.11.68-.84,1.02-1.78,1.02-2.83,0-1.76-.74-3.15-2.23-4.15-1.48-1-3.39-1.82-5.71-2.47-2.33-.64-4.79-1.3-7.4-1.98-2.61-.68-5.05-1.58-7.34-2.71-2.29-1.12-4.15-2.67-5.59-4.63-1.44-1.96-2.17-4.51-2.17-7.64,0-4.65,1.84-8.14,5.53-10.47,3.69-2.32,8.38-3.49,14.07-3.49,3.05,0,5.91.34,8.6,1.02,2.69.68,5.07,1.76,7.16,3.25,2.08,1.48,3.75,3.37,4.99,5.65,1.24,2.29,1.86,5.07,1.86,8.36h-11.31c.08-1.84-.22-3.35-.9-4.51-.68-1.16-1.58-2.06-2.71-2.71-1.12-.64-2.33-1.08-3.61-1.32-1.28-.24-2.53-.36-3.73-.36-2.89,0-5.07.5-6.56,1.5-1.48,1-2.23,2.31-2.23,3.91,0,1.85.74,3.27,2.23,4.27,1.48,1,3.41,1.83,5.77,2.47,2.36.64,4.87,1.3,7.52,1.98,2.65.68,5.13,1.58,7.46,2.71,2.32,1.12,4.23,2.63,5.71,4.51,1.48,1.89,2.23,4.39,2.23,7.52s-.86,5.71-2.59,7.76c-1.73,2.04-4.13,3.59-7.22,4.63-3.09,1.04-6.72,1.56-10.89,1.56Z"/>
        <path class="cls-1" d="M708.12,88.07v9.62h-11.19c-3.93,0-6.88-.96-8.84-2.89-1.97-1.92-2.95-5.05-2.95-9.38v-28.51h-7.46v-8.66c1.77,0,3.21-.12,4.33-.36,1.12-.24,2.03-.76,2.71-1.56.68-.8,1.18-2.04,1.5-3.73.32-1.68.48-4.01.48-6.98h9.86v12.63h11.31v8.66h-11.31v31.15h11.55Z"/>
        <path class="cls-1" d="M739.64,98.89c-5.69,0-10.33-1.22-13.89-3.67-3.57-2.45-6.22-5.59-7.94-9.44-1.73-3.85-2.63-7.86-2.71-12.03-.08-4.97.86-9.4,2.83-13.29,1.96-3.89,4.77-6.94,8.42-9.14,3.65-2.2,7.96-3.31,12.93-3.31,4.41,0,8.38.96,11.91,2.89,3.53,1.92,6.32,4.61,8.36,8.06,2.04,3.45,3.11,7.58,3.19,12.39v3.13h-35.97c0,4.57,1.14,8.08,3.43,10.53,2.29,2.45,5.35,3.67,9.2,3.67,3.05,0,5.59-.76,7.64-2.29,2.04-1.52,3.27-3.53,3.67-6.01h11.91c-.32,3.45-1.44,6.58-3.37,9.38-1.92,2.81-4.53,5.03-7.82,6.68-3.29,1.64-7.22,2.47-11.79,2.47ZM727.13,68.94h23.34c-.08-.56-.24-1.44-.48-2.65s-.76-2.45-1.56-3.73c-.8-1.28-1.97-2.36-3.49-3.25-1.52-.88-3.49-1.32-5.89-1.32s-4.37.4-5.89,1.2c-1.52.8-2.69,1.8-3.49,3.01-.8,1.2-1.4,2.41-1.8,3.61-.4,1.2-.64,2.25-.72,3.13Z"/>
        <path class="cls-1" d="M805.32,48.25v13.71h-1.8c-3.45,0-6.38.26-8.78.78-2.41.52-4.31,1.35-5.71,2.47-1.4,1.12-2.43,2.61-3.07,4.45-.64,1.84-.96,4.09-.96,6.74v21.29h-12.27v-49.44h11.43l.91,13.65c.14-.63.32-1.27.53-1.92.64-1.96,1.7-3.83,3.19-5.59,1.48-1.77,3.43-3.23,5.83-4.39,2.41-1.16,5.37-1.74,8.9-1.74h1.8Z"/>
      </g>
      <path class="cls-1" d="M251.73,0H21.09C9.44,0,0,9.44,0,21.09v86.68c0,11.65,9.44,21.09,21.09,21.09h230.64c11.65,0,21.09-9.44,21.09-21.09V21.09c0-11.65-9.44-21.09-21.09-21.09ZM108.85,42.71h-35.2v58.42h-14.99v-58.42H23.47v-15.01h85.38v15.01ZM249.35,101.15h-15.01v-58.44h-23.63c-6.34,19.41-12.87,39.42-19.07,58.39h-12.32c-6.19-18.95-12.73-38.99-19.07-58.39h-23.63v58.44h-14.99v-58.44h.02v-15.01h49.24l4.3,12.36,10.32,31.63,10.32-31.63,4.13-12.36h49.38v73.45Z"/>
    </g>
  </g>
</svg>