<?xml version="1.0" encoding="UTF-8"?>
<svg id="Layer_2" data-name="Layer 2" xmlns="http://www.w3.org/2000/svg" viewBox="0 0 239.11 400">
  <defs>
    <style>
      .cls-1 {
        fill: #e5e5e5;
      }

      .cls-1, .cls-2 {
        stroke-width: 0px;
      }

      .cls-2 {
        fill: #bcbcbc;
      }
    </style>
  </defs>
  <g id="Layer_1-2" data-name="Layer 1">
    <g>
      <path class="cls-1" d="M230.22,83.56c7.36,2.31,8.86,4.35,8.88,11.82.01,6.63,0,13.26,0,19.9,0,8-1.05,9.52-8.88,12.51v5.05c0,74.57.02,149.14-.02,223.72-.01,22.09-13.89,38.98-35.13,42.85-2.87.52-5.86.56-8.8.57-44.37.03-88.73.04-133.1.02-26.3-.02-44.17-17.82-44.18-44.06-.03-56.89,0-113.77,0-170.66v-5.67C.99,178.35-.29,172.82.05,165.93c.32-6.47.04-12.97.08-19.45.03-6.45,1.96-8.85,8.86-10.66v-7.99C.84,124.52.12,123.42.12,114.53c0-6.48-.01-12.97,0-19.45.02-7.18,1.7-9.4,8.87-11.4,0-13.73-.1-27.57.02-41.41C9.2,21.02,23.49,4.17,44.4.52,47.13.04,49.97.03,52.76.03,97.28,0,141.79-.02,186.31.02c26,.02,43.85,17.9,43.91,43.88.03,13.25,0,26.5,0,39.65ZM70.71,17.22c-6.09,0-11.51-.02-16.93,0-17.43.06-27.42,10.01-27.45,27.44-.04,20.93,0,41.86,0,62.79,0,82.69-.01,165.38.01,248.06,0,16.62,9.83,27.16,25.87,27.21,44.96.14,89.93.06,134.89.04,7.75,0,14.41-2.63,19.65-8.51,5.03-5.65,6.18-12.41,6.17-19.72-.06-103.03-.04-206.06-.05-309.08,0-1.91,0-3.84-.19-5.74-.86-8.91-5.33-15.58-13.22-19.61-9.85-5.03-20.38-2.12-30.71-2.99-.11,1.97-.21,3-.22,4.02-.19,14.84-.57,15.22-15.57,15.22-24.32,0-48.65.02-72.97-.02-6.29-.01-9.09-2.69-9.25-8.67-.08-3.22-.01-6.45-.01-10.45Z"/>
      <path class="cls-2" d="M70.71,17.22c0,4-.07,7.22.01,10.45.16,5.98,2.96,8.66,9.25,8.67,24.32.04,48.65.02,72.97.02,15,0,15.38-.37,15.57-15.22.01-1.02.11-2.05.22-4.02,10.33.87,20.86-2.04,30.71,2.99,7.9,4.04,12.36,10.7,13.22,19.61.18,1.9.19,3.83.19,5.74,0,103.03-.01,206.06.05,309.08,0,7.3-1.14,14.07-6.17,19.72-5.24,5.88-11.9,8.5-19.65,8.51-44.96.02-89.93.1-134.89-.04-16.04-.05-25.86-10.59-25.87-27.21-.03-82.69-.01-165.38-.01-248.06,0-20.93-.03-41.86,0-62.79.03-17.43,10.02-27.38,27.45-27.44,5.42-.02,10.84,0,16.93,0Z"/>
    </g>
  </g>
</svg>