<?xml version="1.0" encoding="UTF-8"?>
<svg id="Layer_2" data-name="Layer 2" xmlns="http://www.w3.org/2000/svg" viewBox="0 0 399.19 399.27">
  <defs>
    <style>
      .cls-1 {
        fill: #e5e5e5;
        stroke-width: 0px;
      }
    </style>
  </defs>
  <g id="Layer_1-2" data-name="Layer 1">
    <g>
      <path class="cls-1" d="M398.18,16.15c-1.93-8.28-8.92-14.45-17.42-15.5-1.14-.14-2.27-.43-3.4-.65h-31.19c-1.01.19-2.02.46-3.04.58-14.04,1.64-28.2,2.63-42.11,5.02-30.92,5.32-60.47,15.07-87.53,31.14-45.08,26.77-80.81,63.17-108.34,107.69-3.32,5.36-6.28,10.95-9.06,15.84,47.85,47.86,95.22,95.24,142.72,142.76.4-.21,1.09-.56,1.77-.93,32-16.99,59.61-39.54,84.33-65.89,42.33-45.14,65.3-98.9,72-160.02.85-7.72,1.53-15.45,2.28-23.17v-31.19c-.33-1.89-.57-3.81-1.01-5.68ZM273.56,184.11c-32.46.04-58.46-25.84-58.52-58.25-.05-32.34,26.01-58.54,58.28-58.61,32.23-.07,58.58,26.16,58.65,58.37.07,32.26-26.08,58.44-58.41,58.49Z"/>
      <path class="cls-1" d="M399.19,21.83c-.33-1.89-.57-3.81-1.01-5.68-1.93-8.29-8.92-14.46-17.42-15.5-1.14-.14-2.27-.43-3.4-.66,7.28,0,14.55,0,21.83,0v21.83Z"/>
      <path class="cls-1" d="M85.23,184.22c43.32,43.32,86.37,86.37,129.59,129.6-.72.34-1.67.85-2.68,1.24-14.19,5.52-28.79,9.56-43.8,12.1-6.72,1.14-12.78-.63-17.57-5.39-24.51-24.36-48.95-48.79-73.3-73.31-5.09-5.12-6.56-11.49-5.27-18.69,2.79-15.64,7.13-30.81,13.02-45.56Z"/>
      <path class="cls-1" d="M176.73,349.48c42.12-8.25,79.55-26.3,114.46-51.62-.18,3.36-.25,6-.46,8.63-.68,8.67-1.39,17.34-2.13,26.01-.84,9.8-5.37,17.6-13.48,23.04-20.16,13.51-40.35,26.98-60.74,40.14-13.38,8.64-30.16.89-32.74-14.81-1.7-10.34-3.24-20.71-4.91-31.39Z"/>
      <path class="cls-1" d="M101.49,107.81c-25.49,35.08-43.52,72.52-51.8,114.77-11.94-2-23.77-3.12-35.1-6.12-13.72-3.63-18.73-19.91-10.68-32.32,10.32-15.89,20.87-31.64,31.32-47.45,2.79-4.22,5.52-8.49,8.42-12.64,5.6-8.01,13.26-12.63,23.06-13.46,11.24-.95,22.49-1.8,34.77-2.78Z"/>
      <path class="cls-1" d="M85.36,302.49c8.86.17,14.2,9.66,9.77,17.43-.63,1.11-1.47,2.15-2.37,3.06-24.05,24.08-48.12,48.14-72.19,72.2-3.14,3.14-6.86,4.72-11.3,3.74-8.58-1.9-12.08-11.69-6.71-18.68.63-.82,1.39-1.54,2.12-2.28,23.6-23.61,47.22-47.21,70.79-70.84,2.77-2.78,5.8-4.77,9.89-4.64Z"/>
      <path class="cls-1" d="M62.53,279.58c-1.52,2.74-2.54,5.96-4.65,8.12-12.3,12.63-24.82,25.06-37.35,37.47-5.14,5.09-12.32,5.07-17,.22-4.57-4.73-4.44-11.71.53-16.73,12.42-12.53,24.91-24.98,37.4-37.43,3.75-3.74,8.2-4.84,13.19-2.84,4.37,1.75,7.03,5.91,7.89,11.18Z"/>
      <path class="cls-1" d="M132.47,349.54c-1.43,2.66-2.34,5.82-4.37,7.89-12.49,12.82-25.16,25.45-37.92,38.01-4.95,4.87-12.19,4.65-16.72-.1-4.46-4.67-4.45-11.61.33-16.44,12.59-12.72,25.25-25.37,37.96-37.97,3.66-3.63,8.14-4.41,12.93-2.5,4.34,1.73,7.07,6.02,7.79,11.11Z"/>
      <path class="cls-1" d="M308.57,125.88c-.11,19.27-15.74,34.81-35.07,34.85-19.38.04-34.94-15.39-35.05-34.75-.11-19.48,15.53-35.3,34.95-35.34,19.32-.04,35.28,15.96,35.17,35.24Z"/>
    </g>
  </g>
</svg>