<?xml version="1.0" encoding="UTF-8" standalone="no" ?>
<!DOCTYPE svg PUBLIC "-//W3C//DTD SVG 1.1//EN" "http://www.w3.org/Graphics/SVG/1.1/DTD/svg11.dtd">
<svg xmlns="http://www.w3.org/2000/svg" xmlns:xlink="http://www.w3.org/1999/xlink" version="1.1" width="1080" height="1080" viewBox="0 0 1080 1080" xml:space="preserve">
<desc>Created with Fabric.js 5.2.4</desc>
<defs>
</defs>
<g transform="matrix(1 0 0 1 540 540)" id="87107df2-d4c9-416e-8fdd-668fbcc88848"  >
<rect style="stroke: none; stroke-width: 1; stroke-dasharray: none; stroke-linecap: butt; stroke-dashoffset: 0; stroke-linejoin: miter; stroke-miterlimit: 4; fill: rgb(255,255,255); fill-rule: nonzero; opacity: 1; visibility: hidden;" vector-effect="non-scaling-stroke"  x="-540" y="-540" rx="0" ry="0" width="1080" height="1080" />
</g>
<g transform="matrix(1 0 0 1 540 540)" id="08a05435-5267-4120-95b3-092427956b86"  >
</g>
<g transform="matrix(43.95 0 0 43.95 538.81 500.3)" id="23deb7d1-15a7-4cca-8ab9-4bde02ff9084"  >
<path style="stroke: rgb(0,0,0); stroke-width: 0; stroke-dasharray: none; stroke-linecap: butt; stroke-dashoffset: 0; stroke-linejoin: miter; stroke-miterlimit: 4; fill: rgb(229,229,229); fill-rule: nonzero; opacity: 1;" vector-effect="non-scaling-stroke"  transform=" translate(-12, -11.99)" d="M 24 8.48 L 24 20 C 24 20.552284749830793 23.552284749830793 21 23 21 C 22.447715250169207 21 22 20.552284749830793 22 20 L 22 11.752 L 14.6 15.288 C 13.819744835622863 15.748545945046036 12.929012919488194 15.98842485455223 12.023 15.982 C 11.072850227167331 15.983472323900575 10.13996283711078 15.728137590103612 9.323 15.242999999999997 L 1.9430000000000005 11.729999999999999 C 0.7616002752887643 11.094711750700629 0.017855443115622593 9.868497818515761 0.0004013361093455625 8.527232809878669 C -0.01705277089693147 7.185967801241579 0.694531756080994 5.940815423484487 1.859 5.274999999999999 C 1.8860000000000003 5.258999999999999 1.9150000000000005 5.243999999999999 1.9430000000000005 5.229999999999999 L 9.4 1.6719999999999988 C 11.03922819548269 0.7306119646328879 13.059048890726553 0.7478198274284152 14.681999999999997 1.716999999999997 L 22.057000000000002 5.229999999999999 C 23.241642489737988 5.885455504425735 23.983427707513346 7.1262182207252325 24.000000000000004 8.479999999999997 z M 12.022 17.98 C 10.742577900977308 17.982838132342916 9.485127148608269 17.64751793171117 8.377000000000002 17.008 L 4.000000000000001 14.918999999999999 L 4.000000000000001 17.619 C 4.001218816127336 19.810070975171328 5.426920640818122 21.745849127593203 7.519 22.397 C 8.975332303247502 22.815140686856278 10.484938599807807 23.018285653789075 11.999999999999996 23 C 13.515257819265605 23.01698580042488 15.024867930130036 22.812492754833556 16.481 22.393 C 18.57307935918188 21.741849127593206 19.998781183872666 19.80607097517133 20 17.615000000000002 L 20 14.924000000000003 L 15.541 17.054000000000002 C 14.470642932330831 17.668932980004524 13.256405049142979 17.989141208364376 12.022 17.982000000000003 z" stroke-linecap="round" />
</g>
</svg>