<?xml version="1.0" encoding="UTF-8" standalone="no" ?>
<!DOCTYPE svg PUBLIC "-//W3C//DTD SVG 1.1//EN" "http://www.w3.org/Graphics/SVG/1.1/DTD/svg11.dtd">
<svg xmlns="http://www.w3.org/2000/svg" xmlns:xlink="http://www.w3.org/1999/xlink" version="1.1" width="1080" height="1080" viewBox="0 0 1080 1080" xml:space="preserve">
<desc>Created with Fabric.js 5.2.4</desc>
<defs>
</defs>
<g transform="matrix(1 0 0 1 540 540)" id="77f21e8c-5c08-4b4d-b8dc-569594025ee7"  >
<rect style="stroke: none; stroke-width: 1; stroke-dasharray: none; stroke-linecap: butt; stroke-dashoffset: 0; stroke-linejoin: miter; stroke-miterlimit: 4; fill: rgb(255,255,255); fill-rule: nonzero; opacity: 1; visibility: hidden;" vector-effect="non-scaling-stroke"  x="-540" y="-540" rx="0" ry="0" width="1080" height="1080" />
</g>
<g transform="matrix(1 0 0 1 540 540)" id="a66a44ca-0ecb-4d1a-a3f8-79b6e2c82f65"  >
</g>
<g transform="matrix(2.06 0 0 2.06 526.36 543.11)"  >
<g style="" vector-effect="non-scaling-stroke"   >
		<g transform="matrix(21.33 0 0 21.33 0 149.33)"  >
<path style="stroke: none; stroke-width: 1; stroke-dasharray: none; stroke-linecap: butt; stroke-dashoffset: 0; stroke-linejoin: miter; stroke-miterlimit: 4; fill: rgb(229,229,229); fill-rule: nonzero; opacity: 1;" vector-effect="non-scaling-stroke"  transform=" translate(-12, -19)" d="M 16.043 14 L 7.957 14 C 5.220695076044725 14.003306050646682 3.0033060506466818 16.220695076044727 3.000000000000001 18.957 L 3 24 L 21 24 L 21 18.957 C 20.99669394935332 16.220695076044723 18.779304923955273 14.003306050646678 16.042999999999996 14 Z" stroke-linecap="round" />
</g>
		<g transform="matrix(21.33 0 0 21.33 0 -128)"  >
<circle style="stroke: none; stroke-width: 1; stroke-dasharray: none; stroke-linecap: butt; stroke-dashoffset: 0; stroke-linejoin: miter; stroke-miterlimit: 4; fill: rgb(229,229,229); fill-rule: nonzero; opacity: 1;" vector-effect="non-scaling-stroke"  cx="0" cy="0" r="6" />
</g>
</g>
</g>
</svg>