<?xml version="1.0" encoding="UTF-8"?>
<svg id="Layer_2" data-name="Layer 2" xmlns="http://www.w3.org/2000/svg" viewBox="0 0 27 24">
  <defs>
    <style>
      .cls-1 {
        fill: #e5e5e5;
        stroke-width: 0px;
      }
    </style>
  </defs>
  <g id="injected-svg">
    <g>
      <path class="cls-1" d="M9,0C5.69,0,3,2.69,3,6s2.69,6,6,6,6-2.69,6-6S12.31,0,9,0Z"/>
      <path class="cls-1" d="M10.5,13.5h-3c-4.14,0-7.5,3.36-7.5,7.5v1.5c0,.82.68,1.5,1.5,1.5h15c.83,0,1.5-.68,1.5-1.5v-1.5c0-4.14-3.36-7.5-7.5-7.5Z"/>
      <path class="cls-1" d="M18,0c-.71,0-1.35.14-1.96.33,1.23,1.53,1.96,3.49,1.96,5.67s-.73,4.12-1.96,5.67c.61.2,1.26.33,1.96.33,3.42,0,6-2.58,6-6S21.42,0,18,0Z"/>
      <path class="cls-1" d="M19.5,13.5h-1.66c1.95,1.91,3.16,4.56,3.16,7.5v1.5c0,.53-.1,1.04-.27,1.5h4.77c.82,0,1.5-.68,1.5-1.5v-1.5c0-4.14-3.36-7.5-7.5-7.5Z"/>
    </g>
  </g>
</svg>