<?xml version="1.0" encoding="UTF-8"?>
<svg id="Layer_2" data-name="Layer 2" xmlns="http://www.w3.org/2000/svg" viewBox="0 0 596.3 467.01">
  <defs>
    <style>
      .cls-1 {
        fill: #e5e5e5;
        stroke-width: 0px;
      }
    </style>
  </defs>
  <g id="Layer_1-2" data-name="Layer 1">
    <g>
      <path class="cls-1" d="M596.3,311.87c0,1.04-.01,2.1-.04,3.16-.55,19.64-7.07,37.68-19.41,53.68-17.38-21.16-39.05-30.03-64.41-26.35-3.25.46-4.72-.4-6.03-1.95-12.48-14.68-29.15-20.36-51-17.38-1.07.15-1.59.1-1.78.07-.1-.15-.33-.54-.61-1.41-6.53-20.05-18.09-35.66-34.37-46.41-23.52-15.52-48.34-19.51-73.76-11.86-.38.08-.75.14-1.13.21-1.14.21-2.44.44-3.77.86-31.94,10.09-57.98,44.22-59.27,77.71-.02.57-.04,1.19-.07,1.78-.45-.08-.91-.17-1.31-.25-12.28-2.4-24.53-1.19-36.41,3.59-14.43,5.78-25.86,15.88-34.93,30.87l-.19.31-.14.33c-3.1,7.35-6.61,15.68-7.07,24.86l-.02.26.09,1.69c-8.46-.02-16.92-.03-25.38-.03-5.88,0-11.76.01-17.65.01-20.76.01-42.22.02-63.37-.08l-.95-.5h-1.2c-37.2-.14-73.43-25.81-86.15-61.04-1.7-4.71-2.85-9.53-4.07-14.63-.6-2.5-1.21-5.08-1.9-7.64v-22.5c2.37-11.07,4.75-21,9.44-30.19,15.04-29.44,39.21-47.13,71.83-52.57,7.82-1.29,13.98-1.43,19.41-.44l5.9,1.07v-.78c1.8.26,3.64.68,5.54,1.11.59.14,1.19.27,1.79.4,5.32,1.17,9.92-.54,13.29-4.92,13.6-17.66,32.27-26.99,57.1-28.52,5.87-.36,12.37.51,19.86,2.65l.15.05c2.02.58,5.39,1.56,8.5-.3,1.34-.8,3.08-2.43,3.78-5.66,1.33-6.22,3.77-12.08,6.34-18.28,1.31-3.15,2.67-6.4,3.86-9.72.25-.34.5-.67.75-1.01.97-1.28,1.98-2.61,2.88-4.15,12.63-21.63,30.71-38.37,53.74-49.76,4.75-2.35,9.86-4.4,14.8-6.38,2.14-.86,4.29-1.73,6.42-2.61,4.43-.41,8.79-1.1,13.01-1.77,5.44-.87,10.58-1.69,15.84-1.95,20.88-1.02,40.4,2.73,59.68,11.46,21.32,9.65,38.86,25.26,53.6,47.72,11.48,17.51,18.04,36.82,20.04,59.03.21,2.29.32,4.22.4,5.78.25,4.51.43,7.77,3.2,9.97,2.83,2.25,6.07,1.68,11.44.75,1.41-.24,3.06-.53,5-.83,29.42-4.55,55.25,2.8,76.78,21.85,21.2,18.74,31.93,42.49,31.93,70.64Z"/>
      <path class="cls-1" d="M580.27,408.8c0,19.85-10.57,39.56-28.67,49.77-9.74,5.5-20.81,8.22-33.85,8.32-23.21.16-46.82.12-69.65.09-9.52-.01-19.05-.02-28.58-.02-15.68,0-31.36,0-47.05,0-33.86.01-68.88.02-103.31-.02-29.06-.03-52.79-19.87-57.8-48.29l-.4-7.67-.36-7.04c.42-7.21,3.43-14.46,6.14-20.89,7.88-12.89,17.66-21.55,29.91-26.46,10.07-4.05,20.42-5.08,30.77-3.06,4.33.85,7.45,1.46,10.21-.73,2.78-2.2,2.9-5.39,3.09-10.22,1.13-29.55,24.1-59.67,52.28-68.57.72-.22,1.6-.38,2.53-.55.53-.09,1.07-.19,1.6-.3l.43-.11c22.84-6.94,44.29-3.48,65.59,10.57,14.54,9.6,24.47,23.06,30.36,41.16,2.1,6.43,6.44,9.09,13.27,8.15,18.18-2.49,31.92,2.07,42,13.94,3.78,4.46,8.86,6.27,15.09,5.37,22.11-3.19,40.29,4.39,55.56,23.18.29.36.55.74.82,1.12.66.95,1.52,2.18,2.75,3.27.05.51.14.99.26,1.45.38,1.56,1.04,2.86,1.54,3.85.16.3.32.6.46.92,3.4,7.24,5.01,15.01,5.01,22.76Z"/>
      <path class="cls-1" d="M297.32,81.71c-.69.28-1.39.56-2.09.84-5.11,2.05-10.41,4.18-15.51,6.7-24.81,12.27-44.3,30.33-57.94,53.68-.52.9-1.2,1.82-1.93,2.79h-2.57l-125.23-.15-6.06.04c-4.99.04-10.15.07-15.2.06-24.55-.1-41.79-16.7-42.92-41.31-.99-21.73,15.06-40.01,37.36-42.51l1.46-.17c3.37-.41,6.28-.76,9.03-.03,7.54,1.96,12.24-3.26,13.79-4.99,4.47-5,9.82-7.9,16.36-8.87l.68-.11.63-.28c2.59-1.16,5.71-1.28,9.54-.36,10.62,2.56,13.67-5.51,14.82-8.54,8.17-21.43,23.25-34.1,44.82-37.67,15.87-2.61,31.41,1,43.77,10.18,12.73,9.45,20.95,23.85,23.14,40.55.68,5.2,1.09,8.34,3.95,10.49,2.86,2.15,6,1.67,11.21.87,13.51-2.08,29.2,5.22,37.31,16.41.57.77,1.09,1.57,1.58,2.38Z"/>
    </g>
  </g>
</svg>